<svg xmlns="http://www.w3.org/2000/svg" width="244" height="30" viewBox="0 0 244 36">
			    <g id="prefix__Logo" transform="translate(.5 .5)">
			        <path id="prefix__Subtraction_1" d="M200.856 35h-.487a.921.921 0 0 1-.828-.534L184.325 1.272a.892.892 0 0 1 .029-.872.916.916 0 0 1 .8-.4h6.475a.951.951 0 0 1 .828.534l8.06 18.222h.292L208.82.542a.95.95 0 0 1 .828-.534h6.474a.916.916 0 0 1 .8.4.892.892 0 0 1 .03.868l-15.269 33.19a.921.921 0 0 1-.827.534zM99.989 35H99.5a.921.921 0 0 1-.828-.534L83.5 1.264A.892.892 0 0 1 83.528.4a.916.916 0 0 1 .8-.4H90.8a.949.949 0 0 1 .828.534l8.021 18.23h.292l8.08-18.23a.949.949 0 0 1 .828-.534h6.474a.916.916 0 0 1 .8.4.892.892 0 0 1 .03.868l-15.334 33.2a.921.921 0 0 1-.83.532zm-56.128 0a17.357 17.357 0 0 1-17.476-17.451 17.657 17.657 0 0 1 1.361-6.849 17.5 17.5 0 0 1 32.271 0 17.75 17.75 0 0 1 0 13.672 17.36 17.36 0 0 1-9.31 9.263A17.673 17.673 0 0 1 43.861 35zm0-27.222a9.433 9.433 0 0 0-3.752.775 9.891 9.891 0 0 0-5.168 5.214 9.655 9.655 0 0 0-.767 3.782 9.484 9.484 0 0 0 .767 3.747 9.834 9.834 0 0 0 5.168 5.16 9.521 9.521 0 0 0 3.752.766 9.64 9.64 0 0 0 3.78-.766 9.829 9.829 0 0 0 5.187-5.16 9.471 9.471 0 0 0 .768-3.747 9.642 9.642 0 0 0-.768-3.782 9.885 9.885 0 0 0-5.187-5.214 9.551 9.551 0 0 0-3.78-.775zM11.44 35a18.333 18.333 0 0 1-7.43-1.452 11.729 11.729 0 0 1-3.523-2.291c-.494-.494-.632-.682-.243-1.361l2.288-4.035a1.089 1.089 0 0 1 .957-.478 1.289 1.289 0 0 1 .7.187c.021.011.086.053.175.112 3.2 2.117 5.43 2.561 6.737 2.561a3.661 3.661 0 0 0 2.41-.82 2.731 2.731 0 0 0 .949-2.1 3.679 3.679 0 0 0-1.268-2.723 11.479 11.479 0 0 0-3.748-2.182 19.361 19.361 0 0 1-6.292-3.8A9.358 9.358 0 0 1 0 9.674a9.229 9.229 0 0 1 2.811-6.642A11.807 11.807 0 0 1 11.245 0 16.406 16.406 0 0 1 17.8 1.422a20.144 20.144 0 0 1 3.858 2.224 1.232 1.232 0 0 1 .297 1.554l-2.483 3.745A1.716 1.716 0 0 1 18.2 9.7a.614.614 0 0 1-.387-.12c-.059-.033-.177-.111-.34-.219-1-.667-4.054-2.7-6.621-2.7a2.824 2.824 0 0 0-3.063 2.478A3.168 3.168 0 0 0 9 11.588a14.1 14.1 0 0 0 4.095 2.267 21.7 21.7 0 0 1 6.341 3.627 10.712 10.712 0 0 1 2.49 3.147 9.421 9.421 0 0 1 1 4.309 9.661 9.661 0 0 1-3.061 6.909 10.983 10.983 0 0 1-3.614 2.285A13.168 13.168 0 0 1 11.44 35zm108.824-.029h-6.614a.916.916 0 0 1-.8-.4.892.892 0 0 1-.029-.868L128.224.534a.985.985 0 0 1 .828-.534h.487a.985.985 0 0 1 .828.534l15.44 33.172a.891.891 0 0 1-.03.868.916.916 0 0 1-.8.4h-6.5l-.6-1.215-1.881-4.132H136l-3.65-8.226h-.027l-3.023-6.574h-.048l-2.996 6.573h-.01l-.368.83-.282.62h.007l-3.02 6.8h.006l-1.832 4.15-.494 1.167zm121.811 0h-20.154a.925.925 0 0 1-.925-.923L220.955.923a.925.925 0 0 1 .924-.923h20.154a.925.925 0 0 1 .925.923v5.3a.925.925 0 0 1-.925.924h-13.484l.006 6.514h11.1a.961.961 0 0 1 .925.923v5.3a.925.925 0 0 1-.925.923h-11.1l.035 7.019h13.484a.925.925 0 0 1 .925.923v5.3a.925.925 0 0 1-.924.921zm-62.666 0h-5.842a.961.961 0 0 1-.925-.923l.035-33.125A.961.961 0 0 1 173.6 0h5.842a.961.961 0 0 1 .925.923l-.035 33.123a.961.961 0 0 1-.923.924zm-20.441 0h-5.842a.961.961 0 0 1-.925-.923l.009-26.9h-6.961a.925.925 0 0 1-.925-.924V.923a.925.925 0 0 1 .925-.923h21.614a.925.925 0 0 1 .925.923v5.3a.925.925 0 0 1-.925.924H159.9l-.009 26.9a.961.961 0 0 1-.923.923zm-72.487 0h-18.3a.925.925 0 0 1-.925-.923L67.3.923A.925.925 0 0 1 68.23 0h5.793a.961.961 0 0 1 .925.923l-.052 26.9h11.585a.925.925 0 0 1 .925.923v5.3a.925.925 0 0 1-.925.924z" data-name="Subtraction 1" style="stroke:transparent"></path>
			        <path id="prefix__Path_3" d="M1300.433 399.555l9.224 20.276h-18.222z" data-name="Path 3" transform="translate(-1171.179 -384.861)" style="fill:#ffd100"></path>
			    </g>
			</svg>